<svg xmlns="http://www.w3.org/2000/svg" width="31.214" height="31.214" viewBox="0 0 31.214 31.214"><path d="M29.157 10.141c-2.227-2.634-6.055-2.539-8.367-1.415-1.797.874-3.122-1.536-4.141.465-.448.88.633 2.308.797 2.516 0 .001 0 .005-.004.011.02.019.037.035.049.049-.074.686-.002 1.402.123 2.123.015.07.015.145.01.217-.403-.176-.803-.486-1.125-1.004 0 0 .163.765 1.105 1.154-.002.012-.002.021-.006.031-.539-.129-1.106-.448-1.536-1.142 0 0 .282.874 1.518 1.209-.159.544-.669 1.098-1.082 1.437-.371.307-1.064.484-.656 1.028.306.404 1.044.248 1.204.897.081.328-.676.961-.503 1.224.067.176.428.348.569.396-.174.104-.48.392-.48.567.13.065.581.094.723 1.332.24 2.123 2.688.764 3.849.549 1.196-.223 1.383 2.921-.374 4.438-1.758 1.518-5.995.994-4.969-1.757-.87.313-1.534 1.204-1.748 2.194-2.492-.372-3.038-4.596.738-5.34-5.912-1.789-8.396 3.974-4.421 7.252 1.684 1.39 4.818 2.285 9.042 1.342 9.099-2.036 15.106-13.358 9.685-19.773zM10.67 6.665a14.329 14.329 0 0 1-.546-.865c-.849-1.472-1.241-2.835-1.241-2.835s.982 1.022 1.832 2.495c.181.311.336.614.475.902.137-.697.291-2.138-.39-3.32C9.861 1.417 7.698.912 7.698.912s-.646 2.128.293 3.752c.68 1.183 2.006 1.766 2.679 2.001zm-5.222 7.913c-1.699 0-3.076-.343-3.076-.343s1.377-.341 3.076-.341c.361 0 .703.017 1.023.042-.539-.47-1.707-1.323-3.075-1.323C1.523 12.613 0 14.235 0 14.235s1.523 1.622 3.396 1.622c1.368 0 2.535-.854 3.075-1.321-.32.024-.662.042-1.023.042zm14.613-9.12c.85-1.471 1.834-2.493 1.834-2.493s-.393 1.363-1.244 2.835c-.18.311-.363.599-.547.865.676-.234 1.998-.818 2.68-2.001.939-1.624.296-3.753.296-3.753s-2.164.506-3.103 2.129c-.684 1.185-.527 2.622-.393 3.322.141-.288.296-.592.477-.904zM6.68 10.664c.919.531 2.038.409 2.583.305a11.034 11.034 0 0 1-.705-.369c-1.144-.663-1.939-1.428-1.939-1.428s1.06.306 2.204.968c.244.14.467.285.672.425-.178-.524-.636-1.554-1.554-2.087-1.265-.729-2.918-.228-2.918-.228s.392 1.684 1.657 2.414zm2.817 7.244a11.11 11.11 0 0 1-.673.425c-1.144.662-2.206.966-2.206.966s.795-.766 1.94-1.427c.243-.14.48-.261.706-.367-.546-.107-1.664-.23-2.586.305-1.263.729-1.658 2.412-1.658 2.412s1.658.5 2.919-.229c.922-.532 1.376-1.56 1.558-2.085zm5.625-11.405c0-1.322.266-2.396.266-2.396s.267 1.073.267 2.396c0 .277-.013.545-.032.794.365-.419 1.028-1.327 1.028-2.389 0-1.46-1.263-2.645-1.263-2.645s-1.261 1.184-1.262 2.642c0 1.064.665 1.973 1.03 2.39a9.765 9.765 0 0 1-.034-.792z"/></svg>